<mxfile host="app.diagrams.net" modified="2024-02-12T12:03:17.688Z" agent="Mozilla/5.0 (Windows NT 10.0; Win64; x64) AppleWebKit/537.36 (KHTML, like Gecko) Chrome/121.0.0.0 Safari/537.36" version="23.1.2" etag="WpF9CE3QMhDtjOjP8fBV" type="github">
  <diagram name="Page-1" id="ao3Wm0uANzlJNA1FBN3n">
    <mxGraphModel>
      <root>
        <mxCell id="0" />
        <mxCell id="1" parent="0" />
      </root>
    </mxGraphModel>
  </diagram>
</mxfile>
